<svg xmlns="http://www.w3.org/2000/svg" width="31.429" height="22" viewBox="0 0 31.429 22">
  <path id="Icon_awesome-cloud-upload-alt" data-name="Icon awesome-cloud-upload-alt" d="M26.4,11.806A4.72,4.72,0,0,0,22,5.393a4.69,4.69,0,0,0-2.617.8A7.858,7.858,0,0,0,4.714,10.107c0,.133,0,.265.01.4A7.073,7.073,0,0,0,7.071,24.25H25.143A6.285,6.285,0,0,0,26.4,11.806Zm-7.081,3.015H16.107v5.5a.788.788,0,0,1-.786.786H12.964a.788.788,0,0,1-.786-.786v-5.5H8.967a.784.784,0,0,1-.555-1.341L13.588,8.3a.788.788,0,0,1,1.11,0l5.176,5.176a.785.785,0,0,1-.555,1.341Z" transform="translate(0 -2.25)" fill="#ccc"/>
</svg>
