<svg xmlns="http://www.w3.org/2000/svg" width="130" height="65" viewBox="0 0 130 65">
  <g id="Group_212" data-name="Group 212" transform="translate(-25 -695)">
    <text id="ster" transform="translate(89 740)" fill="#0747a6" font-size="43" font-family="BrandonGrotesque-Black, Brandon Grotesque" font-weight="800"><tspan x="0" y="0">ster</tspan></text>
    <text id="M" transform="translate(25 744)" fill="#0747a6" font-size="43" font-family="BrandonGrotesque-Black, Brandon Grotesque" font-weight="800"><tspan x="0" y="0">M</tspan></text>
    <g id="noun_job_2568064" transform="translate(61.874 718.795)">
      <path id="Path_362" data-name="Path 362" d="M14.663,19.2A7.214,7.214,0,0,0,16.7,22.306a3.971,3.971,0,0,0,2.618,1.074,3.975,3.975,0,0,0,2.607-1.062,7.1,7.1,0,0,0,1.988-2.944l.028-.078c.012-.034.027-.076.041-.109a.986.986,0,0,0,.521-.356,2.6,2.6,0,0,0,.575-2.149.886.886,0,0,0-.354-.6.86.86,0,0,0-.436-.158,6.487,6.487,0,0,0-.327-1.2l.015,0a.86.86,0,0,0,.665-.4.833.833,0,0,0,.021-.757A4.817,4.817,0,0,0,23.1,11.462a5.691,5.691,0,0,0-3.589-1.07,5.212,5.212,0,0,0-2.792.683l-.066,0a2.368,2.368,0,0,0-2.1,1.419,3.736,3.736,0,0,0-.271,1.628l0,.288a5.587,5.587,0,0,0,.051.8,3.32,3.32,0,0,1,.031.708.838.838,0,0,0-.406.136.9.9,0,0,0-.388.62,2.558,2.558,0,0,0,.606,2.191A1.072,1.072,0,0,0,14.663,19.2Zm1.026-2.738a3.722,3.722,0,0,0,.031-1.406,4.5,4.5,0,0,1-.043-.6l0-.318a2.543,2.543,0,0,1,.141-1.048,1,1,0,0,1,.959-.615,1.191,1.191,0,0,0,.6-.162,3.943,3.943,0,0,1,2.117-.519h.017a4.318,4.318,0,0,1,2.742.784,3.27,3.27,0,0,1,.858.983,1.216,1.216,0,0,0-.425.424,1.341,1.341,0,0,0-.046,1.2,5.047,5.047,0,0,1,.3,1.178,1.127,1.127,0,0,0,.4.8.932.932,0,0,0,.363.162,1.187,1.187,0,0,1-.226.553,1.447,1.447,0,0,0-.877,1.017,5.638,5.638,0,0,1-1.593,2.375,2.345,2.345,0,0,1-3.389-.007A5.874,5.874,0,0,1,15.967,18.7a1.172,1.172,0,0,0-.787-.809,1.182,1.182,0,0,1-.25-.568A1.041,1.041,0,0,0,15.689,16.462Z" transform="translate(-6.17 -5.381)" fill="#0747a6"/>
      <path id="Path_363" data-name="Path 363" d="M35.724,31.686h0l-2.11-2.11h0l-2.11-2.11h0l-2.11-2.11h0L27.336,23.3A13.152,13.152,0,1,0,6.854,25.679c.012.012.026.022.038.034l.005,0A13.163,13.163,0,0,0,23.456,27.33l9.706,9.706a2.8,2.8,0,1,0,3.956-3.956Zm-4.586,1.35,1.98-1.98,1.123,1.123-1.98,1.98Zm-2.111-2.111,1.98-1.98,1.123,1.123-1.98,1.98Zm-2.111-2.111,1.98-1.98,1.123,1.123-1.98,1.98ZM7.842,8.058a11.755,11.755,0,0,1,17.2,16,5.424,5.424,0,0,0-1.063-.733c-.161-.092-.325-.186-.483-.286-.773-.5-1.591-.934-2.381-1.354-.406-.216-.812-.431-1.205-.652a.891.891,0,0,0-1.166.218,4.432,4.432,0,0,1-.856.743,2.862,2.862,0,0,1-2.491.47,3.817,3.817,0,0,1-1.8-1.173,1.006,1.006,0,0,0-1.325-.205c-.417.235-.839.463-1.261.693-.658.358-1.316.715-1.961,1.1-.154.091-.31.177-.464.261a5.644,5.644,0,0,0-1.33.909A11.742,11.742,0,0,1,7.842,8.058Zm.395,16.992a4.207,4.207,0,0,1,1.022-.687c.167-.091.336-.185.5-.283.63-.372,1.274-.721,1.917-1.071.354-.192.709-.385,1.068-.585a5.013,5.013,0,0,0,2.292,1.392,4.28,4.28,0,0,0,3.632-.659,5.745,5.745,0,0,0,.884-.724c.3.165.606.327.909.489.8.425,1.555.827,2.281,1.3.18.115.364.22.545.323a4.265,4.265,0,0,1,.778.522,11.708,11.708,0,0,1-15.83-.013Zm17.182.671.007-.006c.012-.012.026-.022.038-.034a13.175,13.175,0,0,0,1.061-1.215l1.382,1.382-1.98,1.98L24.581,26.48C24.869,26.239,25.15,25.987,25.419,25.72ZM36.13,36.048a1.435,1.435,0,0,1-1.98,0l-.9-.9,1.98-1.98.9.9a1.4,1.4,0,0,1,0,1.98Z" transform="translate(-3 -3.221)" fill="#0747a6"/>
    </g>
  </g>
</svg>
