<svg xmlns="http://www.w3.org/2000/svg" width="20.005" height="22.304" viewBox="0 0 20.005 22.304">
  <path id="Path_306" data-name="Path 306" d="M1234.77,36.844l-2.08-2.077V31.229a7.749,7.749,0,0,0-6.92-7.691V22h-1.54v1.538a7.8,7.8,0,0,0-6.92,7.691v3.538l-2.08,2.077a.763.763,0,0,0-.17.244.744.744,0,0,0-.06.294v2.307a.63.63,0,0,0,.05.3.666.666,0,0,0,.16.257.683.683,0,0,0,.26.165.7.7,0,0,0,.3.045h5.38a3.85,3.85,0,0,0,7.7,0h5.38a.7.7,0,0,0,.3-.045.683.683,0,0,0,.26-.165.666.666,0,0,0,.16-.257.63.63,0,0,0,.05-.3V37.382a.744.744,0,0,0-.06-.294A.763.763,0,0,0,1234.77,36.844ZM1225,42.766a2.315,2.315,0,0,1-2.31-2.307h4.62a2.315,2.315,0,0,1-2.31,2.307Zm8.46-3.846h-16.92V37.69l2.08-2.077a.763.763,0,0,0,.17-.244.746.746,0,0,0,.06-.294V31.229a6.15,6.15,0,1,1,12.3,0v3.846a.746.746,0,0,0,.06.294.763.763,0,0,0,.17.244l2.08,2.077Z" transform="translate(-1214.997 -22)" fill="#fff"/>
</svg>
