<svg xmlns="http://www.w3.org/2000/svg" width="14" height="17.141" viewBox="0 0 14 17.141">
  <g id="trash" transform="translate(0)">
    <path id="Path_354" data-name="Path 354" d="M13.956,3.831,13.578,2.7a1.055,1.055,0,0,0-1-.722H9.394V.939A.94.94,0,0,0,8.456,0H5.543A.94.94,0,0,0,4.6.939V1.974H1.424a1.056,1.056,0,0,0-1,.722L.043,3.831A.849.849,0,0,0,.848,4.949h.4l.871,10.767a1.558,1.558,0,0,0,1.544,1.425h6.859a1.558,1.558,0,0,0,1.544-1.425l.871-10.767h.219a.849.849,0,0,0,.806-1.118ZM5.609,1H8.39v.97H5.609ZM11.06,15.635a.548.548,0,0,1-.542.5H3.658a.548.548,0,0,1-.542-.5L2.252,4.949h9.672Zm-10-11.69.31-.93a.052.052,0,0,1,.05-.036H12.575a.052.052,0,0,1,.05.036l.31.93Zm0,0" fill="red"/>
    <path id="Path_355" data-name="Path 355" d="M268.681,173.716h.021a.406.406,0,0,0,.406-.385L269.49,166a.407.407,0,1,0-.812-.042l-.382,7.328A.407.407,0,0,0,268.681,173.716Zm0,0" transform="translate(-259.112 -157.823)" fill="red"/>
    <path id="Path_356" data-name="Path 356" d="M106.194,173.335a.407.407,0,0,0,.406.384h.023a.406.406,0,0,0,.384-.428l-.4-7.328a.406.406,0,0,0-.812.044Zm0,0" transform="translate(-102.172 -157.826)" fill="red"/>
    <path id="Path_357" data-name="Path 357" d="M194.66,173.719a.406.406,0,0,0,.407-.407v-7.328a.407.407,0,1,0-.813,0v7.328A.406.406,0,0,0,194.66,173.719Zm0,0" transform="translate(-187.655 -157.825)" fill="red"/>
  </g>
</svg>
