<svg xmlns="http://www.w3.org/2000/svg" width="26" height="26.006" viewBox="0 0 26 26.006">
  <path id="Icon_awesome-wpforms" data-name="Icon awesome-wpforms" d="M26,4.757V25.749a2.479,2.479,0,0,1-2.507,2.507H2.507A2.487,2.487,0,0,1,0,25.743V4.757A2.479,2.479,0,0,1,2.507,2.25H23.5A2.477,2.477,0,0,1,26,4.757ZM23.835,25.743V4.757a.345.345,0,0,0-.337-.337h-.54l-6.4,4.329L13,5.854,9.448,8.75l-6.4-4.335h-.54a.345.345,0,0,0-.337.337V25.743a.345.345,0,0,0,.337.337H23.5a.337.337,0,0,0,.337-.337ZM8.717,11.188v2.147H4.451V11.188Zm0,4.318V17.67H4.451V15.505Zm.644-8.549L12.5,4.421H5.618L9.361,6.957Zm12.188,4.231v2.147H10.174V11.188Zm0,4.318V17.67H10.174V15.505Zm-4.91-8.549,3.743-2.536H13.511l3.128,2.536Zm4.91,12.878V22H15.78V19.835h5.769Z" transform="translate(0 -2.25)" fill="#ccc"/>
</svg>
